<svg width="189" height="35" viewBox="0 0 189 35" fill="none" xmlns="http://www.w3.org/2000/svg">
<path fill-rule="evenodd" clip-rule="evenodd" d="M11.0639 24.2087C11.9166 25.9615 12.7665 26.3455 13.1636 26.3455C13.5608 26.3455 14.4107 25.9615 15.2634 24.2087C16.0594 22.5725 16.6 20.1916 16.6 17.4682C16.6 14.7448 16.0594 12.3639 15.2634 10.7277C14.4107 8.97491 13.5608 8.59091 13.1636 8.59091C12.7665 8.59091 11.9166 8.97491 11.0639 10.7277C10.2679 12.3639 9.72727 14.7448 9.72727 17.4682C9.72727 20.1916 10.2679 22.5725 11.0639 24.2087ZM8.00909 17.4682C8.00909 23.3199 10.3169 28.0637 13.1636 28.0637C16.0104 28.0637 18.3182 23.3199 18.3182 17.4682C18.3182 11.6165 16.0104 6.87273 13.1636 6.87273C10.3169 6.87273 8.00909 11.6165 8.00909 17.4682Z" fill="black"/>
<path fill-rule="evenodd" clip-rule="evenodd" d="M36.8041 26.8043C38.4419 24.4842 39.5091 21.1888 39.5091 17.4682C39.5091 13.7477 38.4419 10.4523 36.8041 8.13207C35.1632 5.80739 33.0569 4.58183 30.9182 4.58183C28.7794 4.58183 26.6732 5.80739 25.0323 8.13207C23.3945 10.4523 22.3273 13.7477 22.3273 17.4682C22.3273 21.1888 23.3945 24.4842 25.0323 26.8043C26.6732 29.129 28.7794 30.3546 30.9182 30.3546C33.0569 30.3546 35.1632 29.129 36.8041 26.8043ZM30.9182 32.0728C36.6117 32.0728 41.2273 25.5341 41.2273 17.4682C41.2273 9.40233 36.6117 2.86365 30.9182 2.86365C25.2246 2.86365 20.6091 9.40233 20.6091 17.4682C20.6091 25.5341 25.2246 32.0728 30.9182 32.0728Z" fill="black"/>
<path fill-rule="evenodd" clip-rule="evenodd" d="M171.818 1.71818H61.8455C53.3051 1.71818 46.3818 8.64149 46.3818 17.1818C46.3818 25.7222 53.3051 32.6455 61.8455 32.6455H171.818C180.359 32.6455 187.282 25.7222 187.282 17.1818C187.282 8.64149 180.359 1.71818 171.818 1.71818ZM61.8455 0C52.3562 0 44.6636 7.69256 44.6636 17.1818C44.6636 26.6711 52.3562 34.3637 61.8455 34.3637H171.818C181.307 34.3637 189 26.6711 189 17.1818C189 7.69256 181.307 0 171.818 0H61.8455Z" fill="black"/>
<path d="M122.158 23.6983C125.165 23.6983 127.378 21.6778 127.642 18.9596H125.79C125.598 21.0042 123.962 22.0386 122.182 22.0386C119.752 22.0386 118.069 20.4269 118.069 17.3239V17.1314C118.069 14.1727 119.825 12.3446 122.11 12.3446C123.842 12.3446 125.285 13.0903 125.598 15.0868H127.57C127.185 11.8876 124.732 10.6848 122.11 10.6848C118.742 10.6848 116 13.2827 116 17.1314V17.3239C116 21.2448 118.646 23.6983 122.158 23.6983Z" fill="black"/>
<path d="M135.246 22.0386C132.673 22.0386 131.133 20.1864 131.133 17.2998V17.1074C131.133 14.2208 132.721 12.3446 135.246 12.3446C137.748 12.3446 139.36 14.2208 139.36 17.1314V17.2998C139.36 20.1383 137.772 22.0386 135.246 22.0386ZM135.222 23.6983C138.782 23.6983 141.428 21.0764 141.428 17.2758V17.0833C141.428 13.3068 138.806 10.6848 135.246 10.6848C131.686 10.6848 129.064 13.3308 129.064 17.1074V17.2998C129.064 20.9802 131.638 23.6983 135.222 23.6983Z" fill="black"/>
<path d="M151.94 12.5851V10.9013H141.814V12.5851H145.879V23.4818H147.875V12.5851H151.94Z" fill="black"/>
<path d="M169.058 23.6983C170.718 23.6983 172.498 22.5918 173.195 21.365V23.4818H175.192V10.9013H173.195V12.8738C172.45 11.647 171.199 10.6848 169.251 10.6848C166.075 10.6848 163.502 13.403 163.502 17.2517V17.4442C163.502 21.3891 166.051 23.6983 169.058 23.6983ZM169.275 22.0386C167.278 22.0386 165.57 20.5231 165.57 17.3479V17.1555C165.57 14.0765 167.134 12.3446 169.443 12.3446C171.728 12.3446 173.268 13.836 173.268 17.0833V17.2758C173.268 20.4991 171.415 22.0386 169.275 22.0386Z" fill="black"/>
<path d="M155.688 15.8552V10.8526H153.692V23.4332H155.688V17.8195H156.391L161.269 23.4332H163.699L157.853 16.77L163.241 10.8526H160.908L156.459 15.8552H155.688Z" fill="black"/>
<path d="M68.92 22.449V12.825H63.4L63.28 15.273C63.248 16.073 63.192 16.849 63.112 17.601C63.048 18.337 62.936 19.017 62.776 19.641C62.632 20.265 62.416 20.777 62.128 21.177C61.84 21.577 61.456 21.825 60.976 21.921L58.696 21.513C59.192 21.529 59.592 21.369 59.896 21.033C60.2 20.681 60.432 20.201 60.592 19.593C60.768 18.985 60.896 18.297 60.976 17.529C61.056 16.745 61.12 15.937 61.168 15.105L61.36 10.809H71.224V22.449H68.92ZM58.192 26.481V21.513H73.168V26.481H71.008V23.529H60.376V26.481H58.192Z" fill="black"/>
<path d="M75.232 23.529V10.809H81.136C82.624 10.809 83.792 11.097 84.64 11.673C85.504 12.233 85.936 13.033 85.936 14.073C85.936 15.113 85.528 15.921 84.712 16.497C83.912 17.057 82.848 17.337 81.52 17.337L81.88 16.713C83.4 16.713 84.528 16.993 85.264 17.553C86 18.113 86.368 18.937 86.368 20.025C86.368 21.129 85.952 21.993 85.12 22.617C84.304 23.225 83.048 23.529 81.352 23.529H75.232ZM77.488 21.753H81.184C82.144 21.753 82.864 21.609 83.344 21.321C83.824 21.017 84.064 20.537 84.064 19.881C84.064 19.209 83.84 18.721 83.392 18.417C82.96 18.097 82.272 17.937 81.328 17.937H77.488V21.753ZM77.488 16.281H80.944C81.824 16.281 82.488 16.121 82.936 15.801C83.4 15.465 83.632 15.001 83.632 14.409C83.632 13.801 83.4 13.345 82.936 13.041C82.488 12.737 81.824 12.585 80.944 12.585H77.488V16.281Z" fill="black"/>
<path d="M90.88 28.329C90.272 28.329 89.68 28.225 89.104 28.017C88.528 27.825 88.032 27.537 87.616 27.153L88.6 25.425C88.92 25.729 89.272 25.961 89.656 26.121C90.04 26.281 90.448 26.361 90.88 26.361C91.44 26.361 91.904 26.217 92.272 25.929C92.64 25.641 92.984 25.129 93.304 24.393L94.096 22.641L94.336 22.353L99.328 10.809H101.584L95.416 24.801C95.048 25.697 94.632 26.401 94.168 26.913C93.72 27.425 93.224 27.785 92.68 27.993C92.136 28.217 91.536 28.329 90.88 28.329ZM93.904 23.937L88.096 10.809H90.496L95.44 22.137L93.904 23.937Z" fill="black"/>
<path d="M102.216 23.529L107.688 16.425L107.664 17.601L102.456 10.809H105.024L109.008 16.041H108.024L112.008 10.809H114.528L109.248 17.649L109.272 16.425L114.792 23.529H112.176L107.976 17.961L108.912 18.105L104.784 23.529H102.216Z" fill="black"/>
<path d="M0.262357 22.529V21.4725L3.51331 17.1999C3.80228 16.827 4.01521 16.5007 4.15209 16.2211C4.29658 15.931 4.39163 15.6669 4.43726 15.4287C4.49049 15.1801 4.51711 14.9419 4.51711 14.714C4.51711 14.1547 4.37262 13.7145 4.08365 13.3934C3.79468 13.0723 3.37262 12.9117 2.81749 12.9117C2.39164 12.9117 2.0076 13.0101 1.6654 13.2069C1.32319 13.3934 1.02662 13.6886 0.775665 14.0925L0 13.1759C0.304183 12.6476 0.711027 12.2436 1.22053 11.964C1.73764 11.674 2.30418 11.529 2.92015 11.529C3.47529 11.529 3.95817 11.6533 4.36882 11.9018C4.77947 12.1401 5.09506 12.4871 5.31559 12.9428C5.54373 13.3985 5.65779 13.9372 5.65779 14.5586C5.65779 14.9108 5.62357 15.2578 5.55513 15.5996C5.48669 15.9414 5.35741 16.3039 5.1673 16.6872C4.97719 17.0704 4.70342 17.5002 4.34601 17.9767L1.44867 21.7832L1.1749 21.1773H6V22.529H0.262357Z" fill="black"/>
</svg>
