<svg width="42" height="30" viewBox="0 0 42 30" fill="none" xmlns="http://www.w3.org/2000/svg">
<path fill-rule="evenodd" clip-rule="evenodd" d="M11.0639 21.345C11.9166 23.0978 12.7665 23.4818 13.1636 23.4818C13.5608 23.4818 14.4107 23.0978 15.2634 21.345C16.0594 19.7088 16.6 17.3279 16.6 14.6045C16.6 11.8811 16.0594 9.50023 15.2634 7.86403C14.4107 6.11127 13.5608 5.72727 13.1636 5.72727C12.7665 5.72727 11.9166 6.11127 11.0639 7.86403C10.2679 9.50023 9.72727 11.8811 9.72727 14.6045C9.72727 17.3279 10.2679 19.7088 11.0639 21.345ZM8.00909 14.6045C8.00909 20.4562 10.3169 25.2 13.1636 25.2C16.0104 25.2 18.3182 20.4562 18.3182 14.6045C18.3182 8.75283 16.0104 4.00909 13.1636 4.00909C10.3169 4.00909 8.00909 8.75283 8.00909 14.6045Z" fill="black"/>
<path fill-rule="evenodd" clip-rule="evenodd" d="M36.8041 23.9406C38.4419 21.6205 39.5091 18.3251 39.5091 14.6045C39.5091 10.884 38.4419 7.58863 36.8041 5.26842C35.1632 2.94374 33.0569 1.71818 30.9182 1.71818C28.7794 1.71818 26.6732 2.94374 25.0323 5.26842C23.3945 7.58863 22.3273 10.884 22.3273 14.6045C22.3273 18.3251 23.3945 21.6205 25.0323 23.9406C26.6732 26.2653 28.7794 27.4909 30.9182 27.4909C33.0569 27.4909 35.1632 26.2653 36.8041 23.9406ZM30.9182 29.2091C36.6117 29.2091 41.2273 22.6704 41.2273 14.6045C41.2273 6.53868 36.6117 0 30.9182 0C25.2246 0 20.6091 6.53868 20.6091 14.6045C20.6091 22.6704 25.2246 29.2091 30.9182 29.2091Z" fill="black"/>
<path d="M0.262357 19.6653V18.6088L3.51331 14.3362C3.80228 13.9634 4.01521 13.6371 4.15209 13.3574C4.29658 13.0674 4.39164 12.8033 4.43726 12.565C4.49049 12.3165 4.51711 12.0782 4.51711 11.8504C4.51711 11.291 4.37262 10.8508 4.08365 10.5297C3.79468 10.2086 3.37262 10.0481 2.81749 10.0481C2.39164 10.0481 2.0076 10.1465 1.6654 10.3433C1.32319 10.5297 1.02662 10.8249 0.775665 11.2289L0 10.3122C0.304183 9.78397 0.711027 9.38002 1.22053 9.10036C1.73764 8.81034 2.30418 8.66533 2.92015 8.66533C3.47529 8.66533 3.95817 8.78962 4.36882 9.03821C4.77947 9.27644 5.09506 9.62343 5.31559 10.0792C5.54373 10.5349 5.6578 11.0735 5.6578 11.695C5.6578 12.0472 5.62357 12.3941 5.55513 12.736C5.48669 13.0778 5.35741 13.4403 5.1673 13.8235C4.97719 14.2068 4.70342 14.6366 4.34601 15.1131L1.44867 18.9196L1.1749 18.3136H6V19.6653H0.262357Z" fill="black"/>
</svg>
